<?xml version="1.0" encoding="UTF-8" standalone="no"?>
<!DOCTYPE svg PUBLIC "-//W3C//DTD SVG 1.1//EN" "http://www.w3.org/Graphics/SVG/1.1/DTD/svg11.dtd">
<svg width="100%" height="100%" viewBox="0 0 141 163" version="1.1" xmlns="http://www.w3.org/2000/svg" xmlns:xlink="http://www.w3.org/1999/xlink" xml:space="preserve" xmlns:serif="http://www.serif.com/" style="fill-rule:evenodd;clip-rule:evenodd;stroke-linejoin:round;stroke-miterlimit:2;">
    <g transform="matrix(1,0,0,1,-1291,-1591)">
        <g id="chems" transform="matrix(0.66541,0,0,0.66541,-9966.68,2976.29)">
            <path d="M17061.5,-1991.02C17061.5,-1989.04 17062,-1987.09 17062.9,-1985.33L17128.7,-1855.3C17130.7,-1851.39 17130.5,-1846.74 17128.2,-1843.01C17125.9,-1839.27 17121.9,-1837 17117.5,-1837L16931.5,-1837C16927.1,-1837 16923.1,-1839.27 16920.8,-1843.01C16918.5,-1846.74 16918.3,-1851.39 16920.3,-1855.3L16986.1,-1985.33C16987,-1987.09 16987.5,-1989.04 16987.5,-1991.02L16987.5,-2040.5C16987.5,-2042.49 16986.7,-2044.4 16985.3,-2045.8C16983.9,-2047.21 16982,-2048 16980,-2048C16975.9,-2048 16972.5,-2051.36 16972.5,-2055.5L16972.5,-2069.16C16972.5,-2072.5 16973.8,-2075.71 16976.2,-2078.07C16978.6,-2080.44 16981.8,-2081.76 16985.1,-2081.76L17063.9,-2081.76C17067.2,-2081.76 17070.4,-2080.44 17072.8,-2078.07C17075.2,-2075.71 17076.5,-2072.5 17076.5,-2069.16L17076.5,-2055.5C17076.5,-2051.36 17073.1,-2048 17069,-2048C17064.9,-2048 17061.5,-2044.64 17061.5,-2040.5L17061.5,-1991.02Z"/>
        </g>
    </g>
</svg>
