<?xml version="1.0" encoding="UTF-8" standalone="no"?>
<!DOCTYPE svg PUBLIC "-//W3C//DTD SVG 1.1//EN" "http://www.w3.org/Graphics/SVG/1.1/DTD/svg11.dtd">
<svg width="100%" height="100%" viewBox="0 0 179 179" version="1.1" xmlns="http://www.w3.org/2000/svg" xmlns:xlink="http://www.w3.org/1999/xlink" xml:space="preserve" xmlns:serif="http://www.serif.com/" style="fill-rule:evenodd;clip-rule:evenodd;stroke-linejoin:round;stroke-miterlimit:2;">
    <g transform="matrix(1,0,0,1,-362.566,-2859.57)">
        <g id="empty" transform="matrix(1,0,0,1,-986,464)">
            <path d="M1348.57,2569L1348.57,2401C1348.57,2400.07 1348.8,2399.2 1349.21,2398.44C1349.45,2397.98 1349.77,2397.55 1350.16,2397.16C1350.55,2396.77 1350.98,2396.45 1351.44,2396.21C1352.2,2395.8 1353.07,2395.57 1354,2395.57L1522,2395.57C1522.93,2395.57 1523.8,2395.8 1524.56,2396.21C1525.02,2396.45 1525.45,2396.77 1525.84,2397.16C1526.23,2397.55 1526.55,2397.98 1526.79,2398.44C1527.2,2399.2 1527.43,2400.07 1527.43,2401L1527.43,2569C1527.43,2569.93 1527.2,2570.8 1526.79,2571.56C1526.55,2572.02 1526.23,2572.45 1525.84,2572.84C1525.45,2573.23 1525.02,2573.55 1524.56,2573.79C1523.8,2574.2 1522.93,2574.43 1522,2574.43L1354,2574.43C1353.07,2574.43 1352.2,2574.2 1351.44,2573.79C1350.98,2573.55 1350.55,2573.23 1350.16,2572.84C1349.77,2572.45 1349.45,2572.02 1349.21,2571.56C1348.8,2570.8 1348.57,2569.93 1348.57,2569ZM1359.43,2414.12L1359.43,2442.26C1362.68,2436.31 1366.58,2430.77 1371.05,2425.73L1359.43,2414.12ZM1395.26,2406.43L1367.12,2406.43L1378.73,2418.05C1383.77,2413.58 1389.31,2409.68 1395.26,2406.43ZM1508.88,2406.43L1480.74,2406.43C1486.69,2409.68 1492.23,2413.58 1497.27,2418.05L1508.88,2406.43ZM1516.57,2442.26L1516.57,2414.12L1504.95,2425.73C1509.42,2430.77 1513.32,2436.31 1516.57,2442.26ZM1516.57,2555.88L1516.57,2527.74C1513.32,2533.69 1509.42,2539.23 1504.95,2544.27L1516.57,2555.88ZM1480.74,2563.57L1508.88,2563.57L1497.27,2551.95C1492.23,2556.42 1486.69,2560.32 1480.74,2563.57ZM1367.12,2563.57L1395.26,2563.57C1389.31,2560.32 1383.77,2556.42 1378.73,2551.95L1367.12,2563.57ZM1359.43,2527.74L1359.43,2555.88L1371.05,2544.27C1366.58,2539.23 1362.68,2533.69 1359.43,2527.74ZM1378.75,2433.43C1366.72,2447.24 1359.43,2465.27 1359.43,2485C1359.43,2504.73 1366.72,2522.76 1378.75,2536.57L1430.32,2485L1378.75,2433.43ZM1489.57,2425.75C1475.77,2413.72 1457.73,2406.43 1438,2406.43C1418.27,2406.43 1400.24,2413.72 1386.43,2425.75L1438,2477.32L1489.57,2425.75ZM1497.25,2536.57C1509.28,2522.76 1516.57,2504.73 1516.57,2485C1516.57,2465.27 1509.28,2447.24 1497.25,2433.43L1445.68,2485L1497.25,2536.57ZM1386.43,2544.25C1400.24,2556.28 1418.27,2563.57 1438,2563.57C1457.73,2563.57 1475.77,2556.28 1489.57,2544.25L1438,2492.68L1386.43,2544.25Z"/>
        </g>
    </g>
</svg>
