<?xml version="1.0" encoding="UTF-8" standalone="no"?>
<!DOCTYPE svg PUBLIC "-//W3C//DTD SVG 1.1//EN" "http://www.w3.org/Graphics/SVG/1.1/DTD/svg11.dtd">
<svg width="100%" height="100%" viewBox="0 0 166 166" version="1.1" xmlns="http://www.w3.org/2000/svg" xmlns:xlink="http://www.w3.org/1999/xlink" xml:space="preserve" xmlns:serif="http://www.serif.com/" style="fill-rule:evenodd;clip-rule:evenodd;stroke-linejoin:round;stroke-miterlimit:2;">
    <g transform="matrix(1,0,0,1,-2179,-1152)">
        <g id="event" transform="matrix(1.36326,0,0,1.36326,-15650.8,351.267)">
            <path d="M13139.5,588C13172.9,588 13200,615.109 13200,648.5C13200,681.891 13172.9,709 13139.5,709C13106.1,709 13079,681.891 13079,648.5C13079,615.109 13106.1,588 13139.5,588ZM13145.8,667.837C13145.8,663.711 13146.1,660.849 13146.9,659.248C13147.6,657.648 13149.6,655.532 13152.8,652.901C13158.9,647.815 13162.9,643.797 13164.7,640.845C13166.6,637.894 13167.6,634.764 13167.6,631.457C13167.6,625.483 13165,620.255 13159.9,615.774C13154.8,611.258 13148,609 13139.4,609C13131.2,609 13124.6,611.223 13119.6,615.668C13114.5,620.113 13111.8,625.518 13111.4,631.884L13125.2,633.591C13126.2,629.146 13127.9,625.838 13130.5,623.669C13133,621.5 13136.2,620.415 13140,620.415C13144,620.415 13147.1,621.464 13149.4,623.562C13151.8,625.625 13152.9,628.114 13152.9,631.03C13152.9,633.129 13152.3,635.049 13151,636.791C13150.1,637.894 13147.5,640.223 13143.1,643.779C13138.8,647.335 13135.8,650.536 13134.4,653.381C13132.9,656.226 13132.2,659.853 13132.2,664.263C13132.2,664.689 13132.2,665.881 13132.2,667.837L13145.8,667.837ZM13132.2,688L13147.2,688L13147.2,673.011L13132.2,673.011L13132.2,688Z"/>
        </g>
    </g>
</svg>
