<?xml version="1.0" encoding="UTF-8" standalone="no"?>
<!DOCTYPE svg PUBLIC "-//W3C//DTD SVG 1.1//EN" "http://www.w3.org/Graphics/SVG/1.1/DTD/svg11.dtd">
<svg width="100%" height="100%" viewBox="0 0 204 193" version="1.1" xmlns="http://www.w3.org/2000/svg" xmlns:xlink="http://www.w3.org/1999/xlink" xml:space="preserve" xmlns:serif="http://www.serif.com/" style="fill-rule:evenodd;clip-rule:evenodd;stroke-linejoin:round;stroke-miterlimit:2;">
    <g transform="matrix(1,0,0,1,-2145,-600)">
        <g id="hazard" transform="matrix(4.13535,0,0,4.13535,2246.66,707.531)">
            <path d="M0,17.089C-0.626,17.603 -1.302,18.072 -2.026,18.49C-9.196,22.63 -18.377,20.17 -22.517,13C-26.656,5.83 -24.196,-3.351 -17.026,-7.49C-16.302,-7.908 -15.558,-8.259 -14.8,-8.545C-14.931,-9.344 -15,-10.164 -15,-11C-15,-19.279 -8.279,-26 0,-26C8.279,-26 15,-19.279 15,-11C15,-10.164 14.931,-9.344 14.8,-8.545C15.558,-8.259 16.302,-7.908 17.026,-7.49C24.196,-3.351 26.656,5.83 22.517,13C18.377,20.17 9.196,22.63 2.026,18.49C1.302,18.072 0.626,17.603 0,17.089ZM-13.354,-1.994C-14.85,-1.938 -16.354,-1.527 -17.74,-0.727C-22.281,1.894 -23.839,7.709 -21.218,12.25C-18.596,16.791 -12.781,18.349 -8.24,15.727C-6.855,14.927 -5.747,13.83 -4.951,12.562C-9.955,10.586 -13.5,5.704 -13.5,0C-13.5,-0.677 -13.45,-1.343 -13.354,-1.994ZM4.951,12.562C5.747,13.83 6.855,14.927 8.24,15.727C12.781,18.349 18.596,16.791 21.218,12.25C23.839,7.709 22.281,1.894 17.74,-0.727C16.354,-1.527 14.85,-1.938 13.354,-1.994C13.45,-1.343 13.5,-0.677 13.5,0C13.5,5.704 9.955,10.586 4.951,12.562ZM8.402,-10.564C9.103,-11.889 9.5,-13.398 9.5,-15C9.5,-20.243 5.243,-24.5 0,-24.5C-5.243,-24.5 -9.5,-20.243 -9.5,-15C-9.5,-13.398 -9.103,-11.889 -8.402,-10.564C-6.095,-12.402 -3.175,-13.5 0,-13.5C3.175,-13.5 6.095,-12.402 8.402,-10.564ZM-9.891,-1.478C-9.963,-0.996 -10,-0.502 -10,0C-10,4.226 -7.373,7.843 -3.665,9.306C-3.244,7.137 -3.573,4.812 -4.763,2.75C-5.954,0.688 -7.802,-0.759 -9.891,-1.478ZM9.891,-1.478C7.802,-0.759 5.954,0.688 4.763,2.75C3.573,4.812 3.244,7.137 3.665,9.306C7.373,7.843 10,4.226 10,0C10,-0.502 9.963,-0.996 9.891,-1.478ZM-6.224,-7.825C-4.556,-6.377 -2.38,-5.5 0,-5.5C2.38,-5.5 4.556,-6.377 6.224,-7.825C4.516,-9.186 2.352,-10 0,-10C-2.352,-10 -4.516,-9.186 -6.224,-7.825Z"/>
        </g>
    </g>
</svg>
