<?xml version="1.0" encoding="UTF-8" standalone="no"?>
<!DOCTYPE svg PUBLIC "-//W3C//DTD SVG 1.1//EN" "http://www.w3.org/Graphics/SVG/1.1/DTD/svg11.dtd">
<svg width="100%" height="100%" viewBox="0 0 174 226" version="1.1" xmlns="http://www.w3.org/2000/svg" xmlns:xlink="http://www.w3.org/1999/xlink" xml:space="preserve" xmlns:serif="http://www.serif.com/" style="fill-rule:evenodd;clip-rule:evenodd;stroke-linejoin:round;stroke-miterlimit:2;">
    <g transform="matrix(1,0,0,1,-898,-1154)">
        <g id="plastic" transform="matrix(0.538162,0.310708,-0.310708,0.538162,-8762.4,-3001.06)">
            <path d="M17061.5,-2013.74C17074.8,-2013.31 17087.4,-2007.45 17096.3,-1997.49C17105.6,-1987.13 17110,-1973.32 17108.5,-1959.51L17101.5,-1896.76L17110.7,-1771.18C17111.7,-1757.64 17107,-1744.3 17097.7,-1734.36C17088.5,-1724.41 17075.5,-1718.76 17061.9,-1718.76L16987.6,-1718.76C16974,-1718.76 16960.9,-1724.49 16951.7,-1734.55C16942.4,-1744.61 16937.8,-1758.09 16938.9,-1771.71L16946.5,-1861.76L16938.7,-1961.06C16937.6,-1974.64 16942.2,-1988.06 16951.5,-1998.07C16960.7,-2008.07 16973.7,-2013.76 16987.4,-2013.76L16987.5,-2013.76L16987.5,-2040.5C16987.5,-2042.49 16986.7,-2044.4 16985.3,-2045.8C16983.9,-2047.21 16982,-2048 16980,-2048C16975.9,-2048 16972.5,-2051.36 16972.5,-2055.5L16972.5,-2069.16C16972.5,-2072.5 16973.8,-2075.71 16976.2,-2078.07C16978.6,-2080.44 16981.8,-2081.76 16985.1,-2081.76L17063.9,-2081.76C17067.2,-2081.76 17070.4,-2080.44 17072.8,-2078.07C17075.2,-2075.71 17076.5,-2072.5 17076.5,-2069.16L17076.5,-2055.5C17076.5,-2051.36 17073.1,-2048 17069,-2048C17064.9,-2048 17061.5,-2044.64 17061.5,-2040.5L17061.5,-2013.74Z"/>
        </g>
    </g>
</svg>
