<?xml version="1.0" encoding="UTF-8" standalone="no"?>
<!DOCTYPE svg PUBLIC "-//W3C//DTD SVG 1.1//EN" "http://www.w3.org/Graphics/SVG/1.1/DTD/svg11.dtd">
<svg width="100%" height="100%" viewBox="0 0 198 146" version="1.1" xmlns="http://www.w3.org/2000/svg" xmlns:xlink="http://www.w3.org/1999/xlink" xml:space="preserve" xmlns:serif="http://www.serif.com/" style="fill-rule:evenodd;clip-rule:evenodd;stroke-linejoin:round;stroke-miterlimit:2;">
    <g transform="matrix(1,0,0,1,-924,-623)">
        <g id="scrap" transform="matrix(0.66541,0,0,0.66541,-9346.72,1857.96)">
            <path d="M15528,-1704.64L15489.7,-1694.39L15436,-1748.13L15455.7,-1821.54L15529.1,-1841.21L15558.1,-1812.16C15560.3,-1814.32 15562.7,-1816.37 15565.1,-1818.31L15559.6,-1834.68C15565.4,-1838.78 15571.5,-1842.31 15577.9,-1845.23L15589.3,-1832.32C15595.7,-1834.79 15602.3,-1836.56 15609,-1837.58L15612.5,-1854.49C15619.5,-1855.17 15626.5,-1855.17 15633.5,-1854.49L15637,-1837.58C15643.7,-1836.56 15650.3,-1834.79 15656.7,-1832.32L15668.1,-1845.23C15674.5,-1842.31 15680.6,-1838.78 15686.4,-1834.68L15680.9,-1818.31C15686.2,-1814.06 15691.1,-1809.23 15695.3,-1803.93L15711.7,-1809.37C15715.8,-1803.64 15719.3,-1797.53 15722.2,-1791.12L15709.3,-1779.65C15711.8,-1773.32 15713.6,-1766.74 15714.6,-1760.01L15731.5,-1756.54C15732.2,-1749.53 15732.2,-1742.47 15731.5,-1735.46L15714.6,-1731.99C15713.6,-1725.27 15711.8,-1718.68 15709.3,-1712.35L15722.2,-1700.88C15719.3,-1694.47 15715.8,-1688.36 15711.7,-1682.63L15695.3,-1688.07C15691.1,-1682.77 15686.2,-1677.94 15680.9,-1673.69L15686.4,-1657.32C15680.6,-1653.22 15674.5,-1649.69 15668.1,-1646.78L15656.7,-1659.68C15650.3,-1657.21 15643.7,-1655.44 15637,-1654.42L15633.5,-1637.51C15626.5,-1636.83 15619.5,-1636.83 15612.5,-1637.51L15609,-1654.42C15602.3,-1655.44 15595.7,-1657.21 15589.3,-1659.68L15577.9,-1646.78C15571.5,-1649.69 15565.4,-1653.22 15559.6,-1657.32L15565.1,-1673.69C15559.8,-1677.94 15554.9,-1682.77 15550.7,-1688.07L15534.3,-1682.63C15530.2,-1688.36 15526.7,-1694.47 15523.8,-1700.88L15528,-1704.64ZM15531.6,-1805.35C15528.3,-1807.32 15524.6,-1808.87 15520.7,-1809.91C15497.5,-1816.14 15473.5,-1802.33 15467.3,-1779.09C15461.1,-1755.84 15474.9,-1731.91 15498.1,-1725.69C15509.9,-1722.52 15521.9,-1724.53 15531.7,-1730.33C15531.6,-1730.88 15531.5,-1731.43 15531.4,-1731.99L15514.5,-1735.46C15513.8,-1742.47 15513.8,-1749.53 15514.5,-1756.54L15531.4,-1760.01C15532.4,-1766.74 15534.2,-1773.32 15536.7,-1779.65L15523.8,-1791.12C15526,-1796.05 15528.6,-1800.81 15531.6,-1805.35ZM15623,-1767.8C15611,-1767.8 15601.2,-1758.03 15601.2,-1746C15601.2,-1733.97 15611,-1724.2 15623,-1724.2C15635,-1724.2 15644.8,-1733.97 15644.8,-1746C15644.8,-1758.03 15635,-1767.8 15623,-1767.8ZM15503.6,-1696.18L15529.3,-1681.39L15529.3,-1651.8L15503.6,-1637L15478,-1651.8L15478,-1681.39L15503.6,-1696.18Z"/>
        </g>
    </g>
</svg>
