<?xml version="1.0" encoding="UTF-8" standalone="no"?>
<!DOCTYPE svg PUBLIC "-//W3C//DTD SVG 1.1//EN" "http://www.w3.org/Graphics/SVG/1.1/DTD/svg11.dtd">
<svg width="100%" height="100%" viewBox="0 0 158 176" version="1.1" xmlns="http://www.w3.org/2000/svg" xmlns:xlink="http://www.w3.org/1999/xlink" xml:space="preserve" xmlns:serif="http://www.serif.com/" style="fill-rule:evenodd;clip-rule:evenodd;stroke-linejoin:round;stroke-miterlimit:2;">
    <g transform="matrix(1,0,0,1,-2172,-886)">
        <g id="storm" transform="matrix(1.2479,0,0,1.2479,-14126.6,347.423)">
            <path d="M13108.6,504.783C13103.6,508.678 13097.3,511 13090.5,511C13074.2,511 13061,497.781 13061,481.5C13061,465.219 13074.2,452 13090.5,452C13092.2,452 13093.9,452.147 13095.5,452.428C13102.3,440.445 13115.1,432.344 13129.8,432.344C13151.1,432.344 13168.4,449.247 13169.1,470.335C13179.1,471.663 13186.8,480.226 13186.8,490.578C13186.8,501.849 13177.7,511 13166.4,511C13160.5,511 13155.2,508.497 13151.5,504.498C13145.3,508.607 13137.8,511 13129.8,511C13122,511 13114.7,508.717 13108.6,504.783ZM13105.1,511L13143,513.913L13131.3,528.479L13167.7,525.566L13096.4,572.177L13128.5,538.675L13096.4,538.675L13105.1,511Z"/>
        </g>
    </g>
</svg>
