<?xml version="1.0" encoding="UTF-8" standalone="no"?>
<!DOCTYPE svg PUBLIC "-//W3C//DTD SVG 1.1//EN" "http://www.w3.org/Graphics/SVG/1.1/DTD/svg11.dtd">
<svg width="100%" height="100%" viewBox="0 0 185 185" version="1.1" xmlns="http://www.w3.org/2000/svg" xmlns:xlink="http://www.w3.org/1999/xlink" xml:space="preserve" xmlns:serif="http://www.serif.com/" style="fill-rule:evenodd;clip-rule:evenodd;stroke-linejoin:round;stroke-miterlimit:2;">
    <g transform="matrix(1,0,0,1,-894,-1442)">
        <g id="biomass" transform="matrix(0.747855,0,0,0.747855,-11126.3,2794.28)">
            <path d="M16154.5,-1686.02C16152.5,-1694.2 16151.5,-1702.73 16151.5,-1711.5C16151.5,-1752.37 16173.7,-1788.08 16206.8,-1807.2C16239.8,-1788.08 16262,-1752.37 16262,-1711.5C16262,-1673.78 16243.1,-1640.46 16214.2,-1620.51C16219.9,-1605.3 16227.7,-1593.01 16236.6,-1584.7C16233.8,-1580.38 16230.8,-1576.5 16227.7,-1573.14C16217.9,-1583.52 16209.8,-1598.8 16204.5,-1617.13C16200.1,-1619.8 16196,-1622.76 16192.1,-1625.98C16193.4,-1617.09 16193.3,-1608.01 16191.9,-1599.09C16200.4,-1586.34 16205.5,-1573.51 16206.8,-1562.16C16203.1,-1561.97 16199.1,-1562.15 16195.1,-1562.71C16194.6,-1572.46 16191.2,-1583.55 16184.9,-1594.94C16157.7,-1587.68 16127.6,-1593.41 16104.6,-1612.97C16079.7,-1634.16 16069.4,-1666.23 16074.9,-1696.28C16100.9,-1705.51 16130.6,-1702.35 16154.5,-1686.02ZM16183.2,-1597.84L16182.6,-1611.53C16177.2,-1617.97 16171,-1624.26 16164,-1630.17C16146.7,-1644.92 16127.8,-1654.79 16110.9,-1659.06C16128.1,-1652.4 16146.3,-1640.64 16161.9,-1624.92C16170.7,-1616.11 16177.8,-1606.91 16183.2,-1597.84ZM16212.8,-1624.44C16208.5,-1636.89 16205.5,-1651.12 16204.2,-1666.59C16201.9,-1694.2 16205.4,-1721 16213,-1742.82C16203.4,-1723.23 16197.5,-1697.28 16197.5,-1668.84C16197.5,-1657.43 16198.4,-1646.42 16200.2,-1636.06L16212.8,-1624.44ZM16243.5,-1602.23C16236.1,-1623.13 16239.3,-1647.33 16254.3,-1665.85C16269.6,-1684.81 16293.3,-1693.05 16315.7,-1689.56C16323.9,-1668.32 16320.8,-1643.42 16305.5,-1624.47C16291.4,-1606.97 16270.1,-1598.6 16249.3,-1600.17C16246.2,-1590.96 16245.2,-1582.36 16246.3,-1575.16C16243.4,-1574.19 16240.5,-1573.51 16237.8,-1573.14C16237.1,-1581.62 16239.1,-1591.73 16243.5,-1602.23ZM16250.1,-1602.52C16252.8,-1609.9 16256.7,-1617.62 16261.9,-1625.28C16271.2,-1638.95 16282.8,-1650.07 16294.6,-1657.34C16282.7,-1651.86 16270.3,-1642.03 16259.6,-1628.84C16255.4,-1623.54 16251.7,-1618.08 16248.6,-1612.62L16250.1,-1602.52Z"/>
        </g>
    </g>
</svg>
