<?xml version="1.0" encoding="UTF-8" standalone="no"?>
<!DOCTYPE svg PUBLIC "-//W3C//DTD SVG 1.1//EN" "http://www.w3.org/Graphics/SVG/1.1/DTD/svg11.dtd">
<svg width="100%" height="100%" viewBox="0 0 200 200" version="1.1" xmlns="http://www.w3.org/2000/svg" xmlns:xlink="http://www.w3.org/1999/xlink" xml:space="preserve" xmlns:serif="http://www.serif.com/" style="fill-rule:evenodd;clip-rule:evenodd;stroke-linejoin:round;stroke-miterlimit:2;">
    <g transform="matrix(1,0,0,1,-1234,-596)">
        <g id="electronics" transform="matrix(0.66541,0,0,0.66541,-9134.03,1927.83)">
            <path d="M15622,-1910.4L15582.1,-1910.4L15582.1,-1932.4L15622,-1932.4L15622,-1941.18C15622,-1952.13 15630.9,-1961 15641.8,-1961L15650.6,-1961L15650.6,-2000.86L15672.6,-2000.86L15672.6,-1961L15721,-1961L15721,-2000.86L15743,-2000.86L15743,-1961L15791.4,-1961L15791.4,-2000.86L15813.4,-2000.86L15813.4,-1961L15822.2,-1961C15833.1,-1961 15842,-1952.13 15842,-1941.18L15842,-1932.4L15881.9,-1932.4L15881.9,-1910.4L15842,-1910.4L15842,-1862L15881.9,-1862L15881.9,-1840L15842,-1840L15842,-1791.6L15881.9,-1791.6L15881.9,-1769.6L15842,-1769.6L15842,-1760.82C15842,-1749.87 15833.1,-1741 15822.2,-1741L15813.4,-1741L15813.4,-1701.14L15791.4,-1701.14L15791.4,-1741L15743,-1741L15743,-1701.14L15721,-1701.14L15721,-1741L15672.6,-1741L15672.6,-1701.14L15650.6,-1701.14L15650.6,-1741L15641.8,-1741C15630.9,-1741 15622,-1749.87 15622,-1760.82L15622,-1769.6L15582.1,-1769.6L15582.1,-1791.6L15622,-1791.6L15622,-1840L15582.1,-1840L15582.1,-1862L15622,-1862L15622,-1910.4Z"/>
        </g>
    </g>
</svg>
