<?xml version="1.0" encoding="UTF-8" standalone="no"?>
<!DOCTYPE svg PUBLIC "-//W3C//DTD SVG 1.1//EN" "http://www.w3.org/Graphics/SVG/1.1/DTD/svg11.dtd">
<svg width="100%" height="100%" viewBox="0 0 157 138" version="1.1" xmlns="http://www.w3.org/2000/svg" xmlns:xlink="http://www.w3.org/1999/xlink" xml:space="preserve" xmlns:serif="http://www.serif.com/" style="fill-rule:evenodd;clip-rule:evenodd;stroke-linejoin:round;stroke-miterlimit:2;">
    <g transform="matrix(1,0,0,1,-1285,-1390)">
        <g id="glass" transform="matrix(0.486039,0,-0.0896024,0.435212,-7412.81,2367.36)">
            <path d="M17803.6,-2244.51L17803.6,-1929.49L17541.1,-1929.49L17541.1,-2244.51L17803.6,-2244.51ZM17549.6,-2016.25C17549.6,-2008.6 17549.6,-2001.28 17549.6,-1994.41L17795.1,-2184.27L17795.1,-2206.11L17549.6,-2016.25ZM17549.6,-2125.17C17549.6,-2094.76 17549.6,-2062.06 17549.6,-2032.66L17795.1,-2222.53L17795.1,-2235.2L17691.8,-2235.2L17549.6,-2125.17ZM17795.1,-2049.44L17795.1,-2109.71L17574.1,-1938.8L17652,-1938.8L17795.1,-2049.44Z"/>
        </g>
    </g>
</svg>
