<?xml version="1.0" encoding="UTF-8" standalone="no"?>
<!DOCTYPE svg PUBLIC "-//W3C//DTD SVG 1.1//EN" "http://www.w3.org/Graphics/SVG/1.1/DTD/svg11.dtd">
<svg width="100%" height="100%" viewBox="0 0 164 140" version="1.1" xmlns="http://www.w3.org/2000/svg" xmlns:xlink="http://www.w3.org/1999/xlink" xml:space="preserve" xmlns:serif="http://www.serif.com/" style="fill-rule:evenodd;clip-rule:evenodd;stroke-linejoin:round;stroke-miterlimit:2;">
    <g transform="matrix(1,0,0,1,-346,-626)">
        <g id="island" transform="matrix(0.754773,0,0,0.754773,-9434.27,89.9687)">
            <path d="M13064.8,843.003C13065.4,843.001 13065.9,843 13066.5,843C13125.8,843 13174,854.65 13174,869C13174,883.35 13125.8,895 13066.5,895C13007.2,895 12959,883.35 12959,869C12959,856.023 12998.4,845.253 13049.8,843.312C13045,833.464 13042.2,821.455 13042.1,808.5C13041.8,779.972 13054.9,756.029 13072.7,749.661C13070.5,749.391 13068,749.38 13065.5,749.631C13060.3,751.406 13054.8,754.669 13049.7,759.244C13038.7,769.131 13033.5,781.85 13036.8,789.524C13035.9,788.986 13035.1,788.314 13034.3,787.506C13029.1,781.622 13031.8,770.331 13040,760.261C13029.4,768.53 13023.8,779.627 13025.7,788.382C13024.8,787.419 13023.9,786.327 13023.2,785.108C13018.2,776.092 13023.7,763 13035.6,753.485C13025,759.39 13018.3,768.246 13018.4,776.535C13017.6,775.385 13017,774.139 13016.6,772.804C13013.1,761.173 13025,747.101 13043.1,741.399C13053.2,738.248 13063.1,738.308 13070.5,740.955C13068.9,739.487 13067.1,738.094 13065.1,736.802C13059.5,734.7 13052.7,733.507 13045.4,733.619C13029.6,733.861 13016.9,740.117 13014.6,748.151C13014.2,747.12 13013.9,746.054 13013.8,744.961C13013.3,737.008 13023,730.151 13036.6,727.952C13022.2,727.216 13010.1,731.906 13006,739.904C13005.8,738.515 13005.8,737.122 13006,735.74C13007.7,725.52 13021,719.173 13037.3,719.833C13024.5,717.314 13013,719.593 13007.6,725.966C13007.7,724.585 13008,723.242 13008.5,721.953C13013.2,710.733 13032.5,707.912 13051.6,715.658C13067.1,721.919 13077.7,733.176 13078.7,743.188C13078.8,743.287 13078.8,743.386 13078.8,743.485C13083,737.207 13091.3,732.774 13100.9,732.44C13115.2,731.948 13127.2,740.544 13127.7,751.625C13127.8,752.897 13127.7,754.147 13127.4,755.364C13125.4,748.194 13118.3,742.558 13109.4,740.607C13120.2,745.271 13127.4,754.933 13126.2,764.203C13126,765.457 13125.7,766.649 13125.3,767.773C13124.4,759.632 13117.6,751.75 13108,747.77C13116.4,754.002 13121.1,762.954 13119,769.577C13118.7,770.488 13118.3,771.314 13117.7,772.056C13118.1,764.463 13111.2,755.036 13100.9,749.774C13096.2,747.339 13091.4,746.172 13087.3,746.187C13085.7,746.651 13084.2,747.262 13082.8,748.006C13085.2,748.056 13087.6,748.409 13089.8,749.041C13089.5,749.12 13089.3,749.204 13089,749.293C13094.2,751.154 13099.3,754.973 13103.2,760.423C13111.5,772.086 13110.9,786.826 13101.9,793.318C13100.8,794.064 13099.7,794.668 13098.6,795.137C13103.4,789.47 13104.3,780.516 13101,771.961C13103.1,783.571 13098.9,794.901 13090.5,798.96C13089.4,799.508 13088.2,799.9 13087,800.144C13093.4,794.97 13096.2,784.924 13094.3,774.731C13093.7,785.164 13088.8,794.05 13082.1,795.876C13081.1,796.128 13080.2,796.234 13079.3,796.207C13085.9,792.328 13089.9,781.377 13088.7,769.907C13088.1,764.6 13086.5,760 13084.2,756.567C13083.8,756.242 13083.5,755.931 13083.1,755.636C13083.1,755.832 13083.1,756.03 13083.1,756.227C13082.8,755.809 13082.5,755.404 13082.2,755.012C13081.5,754.542 13080.8,754.118 13080.1,753.743C13078.9,754.552 13077.8,755.44 13076.7,756.401C13076.7,756.638 13076.6,756.877 13076.6,757.117C13076.5,756.964 13076.5,756.809 13076.4,756.655C13064.7,767.248 13057,786.512 13057.2,808.5C13057.3,821.32 13060.1,833.214 13064.8,843.003Z"/>
        </g>
    </g>
</svg>
