<?xml version="1.0" encoding="UTF-8" standalone="no"?><!DOCTYPE svg PUBLIC "-//W3C//DTD SVG 1.1//EN" "http://www.w3.org/Graphics/SVG/1.1/DTD/svg11.dtd"><svg width="100%" height="100%" viewBox="0 0 224 223" version="1.1" xmlns="http://www.w3.org/2000/svg" xmlns:xlink="http://www.w3.org/1999/xlink" xml:space="preserve" xmlns:serif="http://www.serif.com/" style="fill-rule:evenodd;clip-rule:evenodd;stroke-linejoin:round;stroke-miterlimit:2;"><path id="net" d="M32.888,116.934l-27.25,0c-3,0 -5.435,-2.435 -5.435,-5.434c0,-2.999 2.435,-5.434 5.435,-5.434l27.25,-0c1.205,-17.699 8.256,-33.803 19.234,-46.396l-19.28,-19.281c-2.121,-2.12 -2.121,-5.564 -0,-7.685c2.12,-2.121 5.564,-2.121 7.685,-0l19.281,19.281c12.474,-10.875 28.394,-17.896 45.895,-19.199l0,-27.286c0,-2.999 2.435,-5.434 5.435,-5.434c2.999,-0 5.434,2.435 5.434,5.434l-0,27.218c17.718,1.095 33.861,8.046 46.517,18.938l19.306,-19.306c2.12,-2.12 5.564,-2.12 7.685,0c2.121,2.121 2.121,5.565 -0,7.686l-19.258,19.257c11.167,12.648 18.348,28.897 19.565,46.773l27.251,-0c2.999,-0 5.434,2.435 5.434,5.434c-0,2.999 -2.435,5.434 -5.434,5.434l-27.251,0c-1.205,17.699 -8.256,33.803 -19.234,46.396l19.281,19.281c2.12,2.12 2.12,5.564 -0,7.685c-2.121,2.121 -5.565,2.121 -7.686,0l-19.281,-19.281c-12.711,11.082 -29,18.161 -46.895,19.267l-0,27.218c-0,2.999 -2.435,5.434 -5.434,5.434c-3,0 -5.435,-2.435 -5.435,-5.434l0,-27.286c-17.678,-1.316 -33.742,-8.466 -46.272,-19.529l-19.258,19.257c-2.12,2.121 -5.564,2.121 -7.685,0c-2.121,-2.12 -2.121,-5.564 -0,-7.685l19.306,-19.306c-10.79,-12.536 -17.713,-28.495 -18.906,-46.017Zm26.939,-49.559c-9.033,10.594 -14.877,23.988 -16.041,38.691l23.751,-0c1.011,-8.184 4.276,-15.673 9.155,-21.827l-16.865,-16.864Zm45.876,-23.685c-14.506,1.255 -27.717,7.069 -38.19,16l16.926,16.926c6.045,-4.636 13.328,-7.736 21.264,-8.717l0,-24.209Zm49.677,15.675c-10.654,-8.95 -24.086,-14.697 -38.808,-15.754l-0,24.288c8.008,0.99 15.352,4.138 21.43,8.844l17.378,-17.378Zm24.109,46.701c-1.178,-14.88 -7.149,-28.419 -16.368,-39.071l-17.408,17.408c4.806,6.123 8.023,13.552 9.025,21.663l24.751,-0Zm-16.041,49.559c9.033,-10.594 14.877,-23.988 16.041,-38.691l-24.751,0c-0.98,7.936 -4.081,15.219 -8.716,21.265l17.426,17.426Zm-46.876,23.764c14.899,-1.069 28.477,-6.943 39.191,-16.079l-17.365,-17.364c-6.154,4.878 -13.643,8.144 -21.826,9.155l-0,24.288Zm-49.44,-16.405c10.534,9.115 23.889,15.055 38.571,16.326l0,-24.209c-8.111,-1.002 -15.54,-4.219 -21.662,-9.026l-16.909,16.909Zm-23.346,-46.05c1.15,14.526 6.868,27.775 15.717,38.308l16.878,-16.878c-4.706,-6.078 -7.855,-13.421 -8.844,-21.43l-23.751,0Zm40.658,-24.942c-2.989,4.082 -5.066,8.874 -5.927,14.074l20.001,-0l-14.074,-14.074Zm21.259,-13.112c-4.954,0.82 -9.538,2.744 -13.491,5.509l13.491,13.491l0,-19Zm24.531,5.631c-3.991,-2.831 -8.636,-4.799 -13.662,-5.631l-0,19.293l13.662,-13.662Zm13.524,21.555c-0.85,-5.128 -2.881,-9.86 -5.804,-13.904l-13.904,13.904l19.708,-0Zm-5.51,24.359c2.766,-3.952 4.689,-8.536 5.51,-13.491l-19.001,0l13.491,13.491Zm-21.676,13.695c5.2,-0.861 9.992,-2.937 14.073,-5.927l-14.073,-14.073l-0,20Zm-24.773,-5.803c4.045,2.923 8.776,4.954 13.904,5.803l0,-19.707l-13.904,13.904Zm-13.282,-21.383c0.833,5.027 2.801,9.672 5.631,13.663l13.663,-13.663l-19.294,0Z"/></svg>