<?xml version="1.0" encoding="UTF-8" standalone="no"?>
<!DOCTYPE svg PUBLIC "-//W3C//DTD SVG 1.1//EN" "http://www.w3.org/Graphics/SVG/1.1/DTD/svg11.dtd">
<svg width="100%" height="100%" viewBox="0 0 102 244" version="1.1" xmlns="http://www.w3.org/2000/svg" xmlns:xlink="http://www.w3.org/1999/xlink" xml:space="preserve" xmlns:serif="http://www.serif.com/" style="fill-rule:evenodd;clip-rule:evenodd;stroke-linejoin:round;stroke-miterlimit:2;">
    <g transform="matrix(1,0,0,1,-132,-574)">
        <g id="relic" transform="matrix(0.75327,0,0,0.75327,-9603.82,74.8463)">
            <path d="M12958,880.245L12958,846.797L12947,846.797L12947,829.249L12958,829.249L12958,814.325L12947,814.325L12947,796.777L12958,796.777L12958,776.858L12925,757.833L12925,679.944L12953.1,663.75L12953.1,739.25L12992.5,762L13031.9,739.25L13031.9,663.75L13060,679.944L13060,757.833L13027,776.858L13027,796.777L13038,796.777L13038,814.325L13027,814.325L13027,829.249L13038,829.249L13038,846.797L13027,846.797L13027,880.245L13027.6,879.9C13032.2,883.309 13036.3,887.366 13039.7,891.943L13034.9,900.618C13037.8,905.293 13040,910.418 13041.2,915.785L13050.7,918.558C13051.5,924.205 13051.5,929.943 13050.7,935.59L13041.2,938.363C13040,943.731 13037.8,948.855 13034.9,953.531L13039.7,962.205C13036.3,966.782 13032.2,970.839 13027.6,974.248L13019,969.496C13014.3,972.411 13009.2,974.534 13003.8,975.778L13001,985.272C12995.4,986.099 12989.6,986.099 12984,985.272L12981.2,975.778C12975.8,974.534 12970.7,972.411 12966,969.496L12957.4,974.248C12952.8,970.839 12948.7,966.782 12945.3,962.205L12950.1,953.531C12947.2,948.855 12945,943.731 12943.8,938.363L12934.3,935.59C12933.5,929.943 12933.5,924.205 12934.3,918.558L12943.8,915.785C12945,910.418 12947.2,905.293 12950.1,900.618L12945.3,891.943C12948.7,887.366 12952.8,883.309 12957.4,879.9L12958,880.245ZM12992.5,915.31C12986,915.31 12980.7,920.582 12980.7,927.074C12980.7,933.567 12986,938.838 12992.5,938.838C12999,938.838 13004.3,933.567 13004.3,927.074C13004.3,920.582 12999,915.31 12992.5,915.31Z"/>
        </g>
    </g>
</svg>
