<?xml version="1.0" encoding="UTF-8" standalone="no"?>
<!DOCTYPE svg PUBLIC "-//W3C//DTD SVG 1.1//EN" "http://www.w3.org/Graphics/SVG/1.1/DTD/svg11.dtd">
<svg width="100%" height="100%" viewBox="0 0 190 133" version="1.1" xmlns="http://www.w3.org/2000/svg" xmlns:xlink="http://www.w3.org/1999/xlink" xml:space="preserve" xmlns:serif="http://www.serif.com/" style="fill-rule:evenodd;clip-rule:evenodd;stroke-linejoin:round;stroke-miterlimit:2;">
    <g transform="matrix(1,0,0,1,-622,-630)">
        <g id="ruin" transform="matrix(0.824989,0,0,0.854309,-10067.7,-56.4412)">
            <path d="M13103.9,837.064L13135.1,837.064L13135.1,921.695C13166.4,925.259 13187.1,931.41 13187.1,938.394C13187.1,949.403 13135.7,958.34 13072.3,958.34C13008.9,958.34 12957.4,949.403 12957.4,938.394C12957.4,931.597 12977.1,925.589 13007,921.987L13007,861L13040.4,861L13040.4,803.553L13092.8,803.553L13066.2,851.384L13090.1,860.506L13039.5,916.449L13129.7,846.183L13100.3,841.504L13103.9,837.064Z"/>
        </g>
    </g>
</svg>
