<?xml version="1.0" encoding="UTF-8" standalone="no"?>
<!DOCTYPE svg PUBLIC "-//W3C//DTD SVG 1.1//EN" "http://www.w3.org/Graphics/SVG/1.1/DTD/svg11.dtd">
<svg width="100%" height="100%" viewBox="0 0 145 161" version="1.1" xmlns="http://www.w3.org/2000/svg" xmlns:xlink="http://www.w3.org/1999/xlink" xml:space="preserve" xmlns:serif="http://www.serif.com/" style="fill-rule:evenodd;clip-rule:evenodd;stroke-linejoin:round;stroke-miterlimit:2;">
    <g transform="matrix(1,0,0,1,-346,-814)">
        <g id="underwater" transform="matrix(0.354957,0,0,0.354957,-5078.33,-315.755)">
            <path d="M15550,3449.4L15690,3449.4C15690,3551.34 15599,3634.1 15487,3634.1C15375,3634.1 15284,3551.34 15284,3449.4L15421,3449.4L15421,3423.81C15401.8,3410.83 15386.7,3392.37 15377.8,3370.68L15345,3370.68L15345,3275L15380.6,3275C15392.7,3249.77 15413.5,3229.51 15439.2,3218.11L15439.2,3183L15534.8,3183L15534.8,3218.11C15560.5,3229.51 15581.3,3249.77 15593.4,3275L15625.5,3275L15625.5,3370.68L15596.2,3370.68C15586.9,3393.49 15570.6,3412.73 15550,3425.77L15550,3449.4ZM15461.5,3285.08C15446.7,3291.84 15435,3304.28 15429.3,3319.61L15461.5,3319.61L15461.5,3285.08ZM15502.8,3281.6C15497.8,3280.25 15492.5,3279.54 15487,3279.54C15481.5,3279.54 15476.2,3280.25 15471.2,3281.6L15471.2,3319.61L15502.8,3319.61L15502.8,3281.6ZM15544.7,3319.61C15539,3304.28 15527.3,3291.84 15512.5,3285.08L15512.5,3319.61L15544.7,3319.61ZM15545.2,3360.97C15547.4,3354.73 15548.5,3348.03 15548.5,3341.08C15548.5,3337.06 15548.2,3333.12 15547.4,3329.32L15512.5,3329.32L15512.5,3360.97L15545.2,3360.97ZM15512.5,3397.08C15524.6,3391.56 15534.6,3382.25 15541,3370.68L15512.5,3370.68L15512.5,3397.08ZM15471.2,3400.56C15476.2,3401.9 15481.5,3402.61 15487,3402.61C15492.5,3402.61 15497.8,3401.9 15502.8,3400.56L15502.8,3370.68L15471.2,3370.68L15471.2,3400.56ZM15433,3370.68C15439.4,3382.25 15449.4,3391.56 15461.5,3397.08L15461.5,3370.68L15433,3370.68ZM15426.6,3329.32C15425.8,3333.12 15425.5,3337.06 15425.5,3341.08C15425.5,3348.03 15426.6,3354.73 15428.8,3360.97L15461.5,3360.97L15461.5,3329.32L15426.6,3329.32ZM15502.8,3329.32L15471.2,3329.32L15471.2,3360.97L15502.8,3360.97L15502.8,3329.32Z"/>
        </g>
    </g>
</svg>
