<?xml version="1.0" encoding="UTF-8" standalone="no"?>
<!DOCTYPE svg PUBLIC "-//W3C//DTD SVG 1.1//EN" "http://www.w3.org/Graphics/SVG/1.1/DTD/svg11.dtd">
<svg width="100%" height="100%" viewBox="0 0 201 226" version="1.1" xmlns="http://www.w3.org/2000/svg" xmlns:xlink="http://www.w3.org/1999/xlink" xml:space="preserve" xmlns:serif="http://www.serif.com/" style="fill-rule:evenodd;clip-rule:evenodd;stroke-linejoin:round;stroke-miterlimit:2;">
    <g transform="matrix(1,0,0,1,-1554,-1128)">
        <g id="upgrade_platform" transform="matrix(0.392806,-0.392806,0.392806,0.392806,-1705.92,2632.36)">
            <path d="M5935.82,2436.18L5935.82,2363.82L6191.18,2363.82L6191.18,2619.18L6118.82,2619.18L6118.82,2583C6118.82,2583 6118.82,2436.18 6118.82,2436.18L5935.82,2436.18ZM5964.22,2708.94L5913.05,2657.78L6032.15,2538.67L6151.25,2657.78L6100.09,2708.94L6032.15,2641.01L5964.22,2708.94ZM5849.1,2457.96L5900.27,2406.79L6019.37,2525.89L5900.27,2645L5849.1,2593.83L5917.03,2525.89L5849.1,2457.96Z"/>
        </g>
    </g>
</svg>
